<?xml version="1.0" encoding="iso-8859-1"?>
<!-- Generator: Adobe Illustrator 16.0.0, SVG Export Plug-In . SVG Version: 6.00 Build 0)  -->
<!DOCTYPE svg PUBLIC "-//W3C//DTD SVG 1.1//EN" "http://www.w3.org/Graphics/SVG/1.1/DTD/svg11.dtd">
<svg version="1.1" id="Capa_1" xmlns="http://www.w3.org/2000/svg" xmlns:xlink="http://www.w3.org/1999/xlink" x="0px" y="0px"
	 width="51.715px" height="51.716px" viewBox="0 0 51.715 51.716" style="enable-background:new 0 0 51.715 51.716;"
	 xml:space="preserve">
<g>
	<path d="M30.944,9.207c-1.467-2.906-2.935-5.811-4.4-8.717c-0.326-0.645-1.408-0.661-1.728,0c-1.423,2.935-2.845,5.87-4.268,8.805
		c-0.022,0.045-0.02,0.088-0.035,0.133c-0.007,0.02-0.01,0.04-0.016,0.061c-0.027,0.101-0.052,0.199-0.048,0.294
		c-0.011,0.465,0.266,0.917,0.813,0.989c0.047,0.013,0.092,0.021,0.14,0.027c0.003,0,0.005,0.001,0.009,0.001
		c0.075-0.001,0.15-0.001,0.225-0.002c0.018-0.002,0.036,0.003,0.053,0c1.089-0.011,2.177-0.022,3.266-0.034l-2.095,6.312
		l6.504,0.361l-2.282-6.694c1-0.01,1.999-0.021,2.999-0.031C30.872,10.704,31.283,9.877,30.944,9.207z M26.402,8.749
		c-0.26,0.002-0.52,0.005-0.779,0.008c-0.87,0.009-1.74,0.018-2.61,0.027c0.895-1.846,1.79-3.693,2.685-5.539
		c0.922,1.828,1.845,3.655,2.768,5.483C27.778,8.735,27.088,8.742,26.402,8.749z"/>
	<path d="M30.39,40.945c-0.048-0.015-0.094-0.021-0.143-0.027c-0.003,0-0.005-0.002-0.008-0.002c-0.072,0-0.145,0-0.216,0.002
		c-0.021,0.003-0.042-0.004-0.062,0c-0.711,0.009-1.422,0.016-2.133,0.021l1.716-5.379l-6.496,0.49l1.743,4.92
		c-1.073,0.012-2.147,0.021-3.221,0.033c-0.791,0.008-1.202,0.834-0.863,1.506c1.467,2.904,2.934,5.811,4.401,8.717
		c0.325,0.645,1.406,0.66,1.727,0c1.424-2.936,2.846-5.869,4.27-8.805c0.021-0.047,0.02-0.09,0.034-0.135
		c0.008-0.02,0.01-0.039,0.016-0.059c0.026-0.102,0.052-0.201,0.049-0.297C31.213,41.469,30.937,41.018,30.39,40.945z
		 M25.956,48.472c-0.923-1.827-1.845-3.655-2.768-5.481c0.771-0.01,1.541-0.017,2.311-0.024c0.563-0.007,1.126-0.013,1.69-0.019
		c0.482-0.004,0.968-0.01,1.45-0.015C27.746,44.779,26.851,46.627,25.956,48.472z"/>
	<path d="M11.505,30.568c-0.008-0.867-0.017-1.734-0.024-2.602l5.63,1.857l-0.425-6.5l-5.232,1.795
		c-0.009-0.98-0.019-1.961-0.028-2.942c-0.008-0.792-0.835-1.201-1.505-0.863c-2.907,1.465-5.813,2.93-8.72,4.395
		c-0.645,0.325-0.66,1.407,0,1.727c2.934,1.426,5.868,2.852,8.802,4.273c0.044,0.021,0.086,0.02,0.129,0.035
		c0.022,0.008,0.045,0.011,0.068,0.018c0.1,0.025,0.196,0.051,0.291,0.048c0.463,0.011,0.911-0.267,0.986-0.808
		c0.014-0.051,0.023-0.1,0.029-0.15c0-0.002,0.001-0.004,0.001-0.006c0-0.059-0.001-0.113-0.001-0.172
		C11.502,30.639,11.512,30.603,11.505,30.568z M3.954,26.557c1.829-0.921,3.657-1.843,5.485-2.764
		c0.006,0.67,0.013,1.341,0.019,2.012c0.005,0.5,0.009,1,0.014,1.501c0.006,0.646,0.013,1.294,0.019,1.94
		C7.645,28.349,5.799,27.453,3.954,26.557z"/>
	<path d="M35.838,25.395c0.217,5.667-4.287,10.432-9.975,10.469c-2.715,0.019-5.304-1.149-7.186-3.084
		c-1.922-1.975-2.855-4.692-2.744-7.423c0.213-5.265,4.793-9.388,9.974-9.422C31.153,15.899,35.559,20.202,35.838,25.395
		c0.069,1.283,2.07,1.289,2,0c-0.321-5.992-4.939-10.794-10.895-11.41c-5.88-0.609-11.406,3.56-12.724,9.251
		c-1.358,5.864,2.017,11.778,7.563,13.901c5.541,2.121,11.968-0.516,14.704-5.689c0.979-1.854,1.432-3.963,1.352-6.053
		C37.79,24.109,35.79,24.104,35.838,25.395z"/>
	<path d="M50.515,25.643c-2.934-1.425-5.867-2.85-8.803-4.274c-0.044-0.021-0.086-0.019-0.129-0.034
		c-0.021-0.008-0.045-0.011-0.068-0.018c-0.1-0.027-0.195-0.051-0.289-0.048c-0.464-0.011-0.911,0.265-0.986,0.808
		c-0.015,0.05-0.023,0.099-0.029,0.15c0,0.002-0.001,0.003-0.001,0.005c0,0.052,0.001,0.104,0.002,0.156
		c0.002,0.041-0.008,0.082,0.001,0.122c0.007,0.794,0.016,1.589,0.022,2.383l-4.575-1.57l-0.425,6.5l5.03-1.66
		c0.009,0.914,0.018,1.826,0.025,2.738c0.008,0.791,0.834,1.199,1.504,0.861c2.907-1.465,5.813-2.93,8.721-4.395
		C51.161,27.046,51.175,25.964,50.515,25.643z M42.276,29.287c-0.006-0.594-0.012-1.188-0.018-1.779
		c-0.006-0.643-0.012-1.283-0.018-1.925c-0.006-0.583-0.012-1.166-0.018-1.749c1.846,0.896,3.69,1.792,5.536,2.688
		C45.933,27.443,44.105,28.365,42.276,29.287z"/>
</g>
<g>
</g>
<g>
</g>
<g>
</g>
<g>
</g>
<g>
</g>
<g>
</g>
<g>
</g>
<g>
</g>
<g>
</g>
<g>
</g>
<g>
</g>
<g>
</g>
<g>
</g>
<g>
</g>
<g>
</g>
</svg>
