<?xml version="1.0" encoding="iso-8859-1"?>
<!-- Generator: Adobe Illustrator 18.0.0, SVG Export Plug-In . SVG Version: 6.00 Build 0)  -->
<!DOCTYPE svg PUBLIC "-//W3C//DTD SVG 1.1//EN" "http://www.w3.org/Graphics/SVG/1.1/DTD/svg11.dtd">
<svg version="1.1" id="Capa_1" xmlns="http://www.w3.org/2000/svg" xmlns:xlink="http://www.w3.org/1999/xlink" x="0px" y="0px"
	 viewBox="0 0 56 56" style="enable-background:new 0 0 56 56;" xml:space="preserve">
<g>
	<path d="M26.382,29.077C26.26,29.027,26.13,29,26,29H14c-0.552,0-1,0.448-1,1s0.448,1,1,1h9.586L0.293,54.293
		c-0.391,0.391-0.391,1.023,0,1.414C0.488,55.902,0.744,56,1,56s0.512-0.098,0.707-0.293L25,32.414V42c0,0.552,0.448,1,1,1
		s1-0.448,1-1V30c0-0.13-0.027-0.26-0.077-0.382C26.821,29.373,26.627,29.179,26.382,29.077z"/>
	<path d="M26,13c-0.552,0-1,0.448-1,1v9.586L1.707,0.293c-0.391-0.391-1.023-0.391-1.414,0s-0.391,1.023,0,1.414L23.586,25H14
		c-0.552,0-1,0.448-1,1s0.448,1,1,1h12c0.13,0,0.26-0.027,0.382-0.077c0.244-0.101,0.439-0.296,0.541-0.541
		C26.973,26.26,27,26.13,27,26V14C27,13.448,26.552,13,26,13z"/>
	<path d="M29.618,26.923C29.74,26.973,29.87,27,30,27h12c0.552,0,1-0.448,1-1s-0.448-1-1-1h-9.586L55.707,1.707
		c0.391-0.391,0.391-1.023,0-1.414s-1.023-0.391-1.414,0L31,23.586V14c0-0.552-0.448-1-1-1s-1,0.448-1,1v12
		c0,0.13,0.027,0.26,0.077,0.382C29.179,26.627,29.373,26.821,29.618,26.923z"/>
	<path d="M32.414,31H42c0.552,0,1-0.448,1-1s-0.448-1-1-1H30c-0.13,0-0.26,0.027-0.382,0.077c-0.244,0.101-0.439,0.296-0.541,0.541
		C29.027,29.74,29,29.87,29,30v12c0,0.552,0.448,1,1,1s1-0.448,1-1v-9.586l23.293,23.293C54.488,55.902,54.744,56,55,56
		s0.512-0.098,0.707-0.293c0.391-0.391,0.391-1.023,0-1.414L32.414,31z"/>
</g>
<g>
</g>
<g>
</g>
<g>
</g>
<g>
</g>
<g>
</g>
<g>
</g>
<g>
</g>
<g>
</g>
<g>
</g>
<g>
</g>
<g>
</g>
<g>
</g>
<g>
</g>
<g>
</g>
<g>
</g>
</svg>
