<?xml version="1.0" encoding="iso-8859-1"?>
<!-- Generator: Adobe Illustrator 16.0.0, SVG Export Plug-In . SVG Version: 6.00 Build 0)  -->
<!DOCTYPE svg PUBLIC "-//W3C//DTD SVG 1.1//EN" "http://www.w3.org/Graphics/SVG/1.1/DTD/svg11.dtd">
<svg version="1.1" id="Capa_1" xmlns="http://www.w3.org/2000/svg" xmlns:xlink="http://www.w3.org/1999/xlink" x="0px" y="0px"
	 width="77.34px" height="77.339px" viewBox="0 0 77.34 77.339" style="enable-background:new 0 0 77.34 77.339;"
	 xml:space="preserve">
<g>
	<g>
		<path d="M60.731,29.237v-1.852l1.296-1.387l-1.296-1.204v-5.979c0-5.795-4.718-10.511-10.512-10.511H10.511
			C4.716,8.304,0,13.02,0,18.815v39.708c0,5.794,4.716,10.512,10.511,10.512H50.22c5.794,0,10.512-4.718,10.512-10.512v-25.13
			l4.288-4.6l-2.071-1.93L60.731,29.237z M14.814,66.7h-4.301c-4.188,0-7.61-3.176-8.08-7.24h0.962
			c0.433,2.039,2.242,3.576,4.411,3.576c2.487,0,4.518-2.025,4.518-4.519s-2.023-4.519-4.518-4.519
			c-2.168,0-3.978,1.537-4.411,3.576H2.338V46.306h1.058c0.433,2.04,2.242,3.577,4.411,3.577c2.487,0,4.518-2.025,4.518-4.512
			s-2.023-4.512-4.518-4.512c-2.168,0-3.978,1.537-4.411,3.574H2.338V33.452h1.058c0.433,2.042,2.242,3.576,4.411,3.576
			c2.487,0,4.518-2.022,4.518-4.51c0-2.489-2.023-4.511-4.518-4.511c-2.168,0-3.978,1.536-4.411,3.576H2.338V21.188h1.058
			c0.433,2.042,2.242,3.576,4.411,3.576c2.487,0,4.518-2.022,4.518-4.51c0-2.488-2.023-4.511-4.518-4.511
			c-2.168,0-3.978,1.537-4.411,3.576H2.338v-0.504c0-4.509,3.668-8.175,8.175-8.175h4.301V66.7z M5.354,57.588
			c0.378-0.992,1.327-1.701,2.453-1.701c1.458,0,2.644,1.187,2.644,2.642S9.265,61.17,7.807,61.17c-1.119,0-2.075-0.714-2.453-1.702
			h2.453v-1.88H5.354z M5.354,44.45c0.378-0.992,1.327-1.701,2.453-1.701c1.458,0,2.644,1.186,2.644,2.642
			c0,1.455-1.186,2.641-2.644,2.641c-1.119,0-2.075-0.714-2.453-1.701h2.453v-1.871H5.354V44.45z M5.354,31.604
			c0.378-0.993,1.327-1.708,2.453-1.708c1.458,0,2.644,1.187,2.644,2.642c0,1.456-1.186,2.642-2.644,2.642
			c-1.119,0-2.075-0.714-2.453-1.708h2.453v-1.868H5.354z M5.354,19.341c0.378-0.993,1.327-1.707,2.453-1.707
			c1.458,0,2.644,1.186,2.644,2.641c0,1.456-1.186,2.642-2.644,2.642c-1.119,0-2.075-0.714-2.453-1.707h2.453v-1.869H5.354z
			 M58.396,25.741L36.568,49.169l2.071,1.932L58.4,29.892v1.852L39.564,51.963l2.077,1.926L58.409,35.89v22.634
			c0,4.508-3.668,8.176-8.176,8.176H17.153V10.64h33.072c4.508,0,8.176,3.667,8.176,8.175L58.396,25.741L58.396,25.741z"/>
		<path d="M77.34,15.624L66.201,27.579l-5.068-4.723l11.136-11.955L77.34,15.624z M31.783,54.304l-1.153,6.323l6.225-1.606
			l3.622-3.894l-5.066-4.72L31.783,54.304z"/>
		<rect x="23.574" y="22.684" width="24.091" height="2.335"/>
		<rect x="23.574" y="16.917" width="24.023" height="2.335"/>
		<rect x="23.574" y="28.453" width="24.091" height="2.336"/>
	</g>
</g>
<g>
</g>
<g>
</g>
<g>
</g>
<g>
</g>
<g>
</g>
<g>
</g>
<g>
</g>
<g>
</g>
<g>
</g>
<g>
</g>
<g>
</g>
<g>
</g>
<g>
</g>
<g>
</g>
<g>
</g>
</svg>
