<?xml version="1.0" encoding="iso-8859-1"?>
<!-- Generator: Adobe Illustrator 19.0.0, SVG Export Plug-In . SVG Version: 6.00 Build 0)  -->
<svg version="1.1" id="Layer_1" xmlns="http://www.w3.org/2000/svg" xmlns:xlink="http://www.w3.org/1999/xlink" x="0px" y="0px"
	 viewBox="0 0 512 512" style="enable-background:new 0 0 512 512;" xml:space="preserve">
<g>
	<g>
		<path d="M503.467,247.467H358.4v-85.333c0-4.71-3.814-8.533-8.533-8.533h-85.333V8.533C264.533,3.823,260.719,0,256,0
			s-8.533,3.823-8.533,8.533V153.6h-85.333c-4.719,0-8.533,3.823-8.533,8.533v85.333H8.533C3.814,247.467,0,251.29,0,256
			s3.814,8.533,8.533,8.533H153.6v85.333c0,4.71,3.814,8.533,8.533,8.533h85.333v145.067c0,4.71,3.814,8.533,8.533,8.533
			s8.533-3.823,8.533-8.533V358.4h85.333c4.719,0,8.533-3.823,8.533-8.533v-85.333h145.067c4.719,0,8.533-3.823,8.533-8.533
			S508.186,247.467,503.467,247.467z M247.467,341.333h-76.8v-76.8h76.8V341.333z M247.467,247.467h-76.8v-76.8h76.8V247.467z
			 M341.333,341.333h-76.8v-76.8h76.8V341.333z M341.333,247.467h-76.8v-76.8h76.8V247.467z"/>
	</g>
</g>
<g>
</g>
<g>
</g>
<g>
</g>
<g>
</g>
<g>
</g>
<g>
</g>
<g>
</g>
<g>
</g>
<g>
</g>
<g>
</g>
<g>
</g>
<g>
</g>
<g>
</g>
<g>
</g>
<g>
</g>
</svg>
