<?xml version="1.0" encoding="iso-8859-1"?>
<!-- Generator: Adobe Illustrator 19.0.0, SVG Export Plug-In . SVG Version: 6.00 Build 0)  -->
<svg version="1.1" id="Layer_1" xmlns="http://www.w3.org/2000/svg" xmlns:xlink="http://www.w3.org/1999/xlink" x="0px" y="0px"
	 viewBox="0 0 455 455" style="enable-background:new 0 0 455 455;" xml:space="preserve">
<path d="M227.5,0C101.855,0,0,101.855,0,227.5c0,47.551,14.598,91.688,39.544,128.193L9.662,445.338l89.646-29.881
	C135.812,440.403,179.949,455,227.5,455C353.145,455,455,353.145,455,227.5C455,101.855,353.145,0,227.5,0z M147.5,242.5
	c-8.284,0-15-6.716-15-15c0-8.284,6.716-15,15-15s15,6.716,15,15S155.784,242.5,147.5,242.5z M227.5,242.5c-8.284,0-15-6.716-15-15
	s6.716-15,15-15s15,6.716,15,15S235.784,242.5,227.5,242.5z M307.5,242.5c-8.284,0-15-6.716-15-15s6.716-15,15-15s15,6.716,15,15
	C322.5,235.784,315.784,242.5,307.5,242.5z"/>
<g>
</g>
<g>
</g>
<g>
</g>
<g>
</g>
<g>
</g>
<g>
</g>
<g>
</g>
<g>
</g>
<g>
</g>
<g>
</g>
<g>
</g>
<g>
</g>
<g>
</g>
<g>
</g>
<g>
</g>
</svg>
