<?xml version="1.0" encoding="iso-8859-1"?>
<!-- Generator: Adobe Illustrator 18.1.1, SVG Export Plug-In . SVG Version: 6.00 Build 0)  -->
<svg version="1.1" id="Capa_1" xmlns="http://www.w3.org/2000/svg" xmlns:xlink="http://www.w3.org/1999/xlink" x="0px" y="0px"
	 viewBox="0 0 19.147 19.147" style="enable-background:new 0 0 19.147 19.147;" xml:space="preserve">
<g>
	<g>
		<path style="fill:#030104;" d="M12.354,0c0.021,0,0.043,0,0.063,0c1.746,1.36,6.01,4.794,6.01,4.794s-0.918,7.746-1.278,10.869
			c-4.128,1.157-8.213,2.357-12.371,3.484c-0.37-1.234-2.691-7.513-2.691-7.513S1.089,4.067,0.719,1.535
			C4.578,1.003,8.516,0.552,12.354,0z M12.066,1.151C8.719,1.608,5.344,2.037,1.965,2.461c0.21,0.558,0.455,1.081,0.672,1.631
			c2.078-0.321,4.271-0.604,6.394-0.928c0.312-0.047,0.73-0.172,0.927-0.127c0.183,0.042,0.521,0.443,0.703,0.64
			c0.725,0.78,1.313,1.441,2.046,2.078c1.387-0.275,2.824-0.5,4.219-0.767C15.44,3.702,13.681,2.413,12.066,1.151z M10.085,5.977
			C7.839,6.31,5.476,6.803,3.148,7.16c0.196,0.635,0.44,1.222,0.671,1.822c1.284-0.197,2.483-0.478,3.74-0.704
			c0.367,0.529,0.624,1.167,1.022,1.663c1.323-0.298,2.674-0.565,3.996-0.863C11.846,8.074,10.936,6.972,10.085,5.977z
			 M8.295,12.467c-0.096-0.178-0.35-0.95-0.543-0.895c-0.979,0.276-2.275,0.503-3.389,0.767c0.133,0.603,0.438,1.31,0.64,1.95
			c1.295-0.261,2.489-0.622,3.771-0.896C8.663,13.06,8.481,12.815,8.295,12.467z"/>
	</g>
</g>
</svg>
